<?xml version="1.0" encoding="utf-8"?>
<!-- Generator: Adobe Illustrator 21.0.0, SVG Export Plug-In . SVG Version: 6.00 Build 0)  -->
<svg version="1.1" id="图层_1" xmlns="http://www.w3.org/2000/svg" xmlns:xlink="http://www.w3.org/1999/xlink" x="0px" y="0px"
	 viewBox="0 0 180 60" style="enable-background:new 0 0 180 60;" xml:space="preserve">
<style type="text/css">
	.st0{fill:url(#SVGID_1_);}
</style>
<g>
	<g>
		<radialGradient id="SVGID_1_" cx="96.7913" cy="22.9041" r="14.2833" gradientUnits="userSpaceOnUse">
			<stop  offset="0" style="stop-color:#E95504"/>
			<stop  offset="1" style="stop-color:#A70012"/>
		</radialGradient>
		<path class="st0" d="M88.5,21.1c2-3.6,5.8-6.1,10.3-6.1c6.4,0,11.6,5.2,11.6,11.6c0,0.1,0,0.2,0,0.4c-0.1,3.2-1.1,5.8-2.5,8
			c-2.2-0.6-4.2-1.7-6-3.2c-0.7-0.6-1.4-1.3-1.9-1.8c0.8-0.3,1.5-0.7,2.1-1.1c3.1-1.8,4.9-4,5.1-6.1c0.2-2-1.1-3.6-3.4-4.4
			c-2.5-0.8-5.9-0.4-9,0.5c-0.1-0.3-0.2-0.5-0.2-0.6c-0.2-0.6-0.8-0.9-1.3-0.7c-0.6,0.2-0.9,0.8-0.7,1.3c0,0,0.1,0.2,0.1,0.5
			C91.2,20,89.7,20.6,88.5,21.1z M97.5,27.6c0.3-0.2,0.8-0.1,1,0.3c0,0,0.2,0.3,0.6,0.9c0.8-0.4,1.6-0.8,2.3-1.2
			c2.6-1.6,4.2-3.4,4.4-5c0.1-1.3-0.8-2.3-2.4-2.9c-2.2-0.7-5.3-0.3-8.3,0.6c0.2,1,0.3,2.3,0.3,3.8c0,1.7-0.2,3.8-0.8,6.3
			c1.2-0.3,2.2-0.7,3.2-1.1c-0.3-0.4-0.4-0.7-0.5-0.7C97,28.3,97.2,27.8,97.5,27.6z M89.1,33.1c0.4,0.7,1,1.3,1.5,1.9
			c0.4-0.8,0.7-1.6,1-2.3C90.8,32.8,89.9,32.9,89.1,33.1z M92.1,31c0.8-2.7,1-5.1,1.1-6.8c0-1.3-0.1-2.4-0.2-3.2
			c-2.1,0.7-4,1.5-5.3,2.2c-0.4,1.1-0.5,2.3-0.5,3.5c0,1.8,0.4,3.6,1.2,5.1C89.6,31.5,90.9,31.3,92.1,31z M100.9,32.8
			c-0.9-0.8-1.7-1.6-2.3-2.3c-1.4,0.6-2.9,1.1-4.6,1.5c-0.4,1.4-1,2.8-1.7,4.3c1.8,1.2,4.1,1.9,6.4,1.9v4.4c0,0,4.8-2,8.2-6.5
			C104.4,35.4,102.3,34,100.9,32.8z"/>
		<path d="M86.6,30c-0.7,0.7-1.3,1.3-1.8,1.8c-1,0.9-2,1.6-3.1,2.2c-1.1,0.6-2.1,0.9-3.1,0.9c-0.9,0-1.6-0.3-2.1-1
			c-0.5-0.7-0.7-1.4-0.7-2.3c0-0.6,0.2-1.1,0.6-1.4c0.4-0.3,1-0.6,1.7-0.8c0.7-0.2,1.8-0.5,3.1-1.1c1.3-0.5,2.4-1.2,3.5-1.9
			c1-0.7,1.5-1.5,1.5-2.3c0-0.7-0.1-1.2-0.3-1.6c-0.2-0.4-0.6-0.6-1.2-0.8c-0.5-0.2-1.3-0.2-2.3-0.2c-1.6,0-3.1,0.3-4.6,0.8
			c-1.5,0.5-2.7,1.3-3.8,2.2c-1,0.9-1.8,1.9-2.4,3c-0.1,0.1-0.2,0.2-0.3,0.3c-0.6,0.5-1.2,0.7-1.8,0.7c-0.5,0-0.9-0.2-1.2-0.7
			c-0.4-0.5-0.5-0.9-0.5-1.4c0-0.4,0.1-0.8,0.2-1.2c0.2-0.4,0.4-0.7,0.6-1c0.1-0.1,0.2-0.2,0.5-0.4c0.2-0.2,0.4-0.4,0.5-0.6
			c0.1-0.2,0.2-0.4,0.2-0.5c0-0.3-0.2-0.6-0.6-0.8c-0.4-0.2-0.8-0.3-1.2-0.3c-1.1,0-2.2,0.3-3.4,1c-1.1,0.7-2.1,1.4-2.8,2.1
			c-0.7,0.7-1.2,1.2-1.5,1.6h-0.5l2.1-4.1h-5.2l-2.3,4.2c-0.9,1.1-1.5,1.9-1.9,2.4c-0.4,0.6-1.1,1.4-2,2.4c-0.9,1-1.7,1.9-2.3,2.5
			c-0.7,0.6-1.2,1-1.5,1.1c-0.1,0-0.2,0.1-0.3,0.1c-0.2,0-0.3,0.1-0.5,0.1c-0.2,0-0.4-0.1-0.7-0.2c-0.2-0.1-0.4-0.2-0.4-0.4
			c0-0.6,0.1-1.1,0.3-1.5L50.8,22h-4.8l-0.8,1.5h-0.8v-0.1c0-0.7-0.3-1.2-0.8-1.4c-0.6-0.2-1.4-0.3-2.6-0.3c-1.1,0-2.3,0.2-3.5,0.6
			c-1.2,0.4-2.4,1.1-3.5,2c-1,0.8-1.8,1.9-2.5,3.1c-1.4,1.7-3,3.3-4.8,4.9c-2.2,1.9-4.2,2.8-5.9,2.8c-0.8,0-1.6-0.4-2.2-1.1
			c-0.6-0.7-1-1.5-1-2.4v-0.1c0-0.7,0.2-1.5,0.6-2.6c0.4-1,0.9-2,1.5-2.9c0.6-0.9,1.2-1.7,1.8-2.3c0.6-0.6,1.2-1,1.6-1
			c0.7,0,1,0.7,1,2.1v1c0,0.4,0.1,0.8,0.2,1.2c0.2,0.4,0.4,0.6,0.8,0.6l0.1,0.1c0.9,0,1.7-0.3,2.4-0.9c0.6-0.6,1-1.5,1-2.5
			c0-1.1-0.3-1.8-0.9-2.1c-0.6-0.4-1.8-0.6-3.4-0.6h-0.1c-1.3,0-2.7,0.3-4.1,0.8c-1.4,0.5-2.6,1.3-3.8,2.2c-1.2,0.9-2.1,2-2.8,3.3
			c-0.7,1.2-1,2.5-1,3.9c0,1.4,0.4,2.6,1.2,3.5c0.8,1,2.2,1.4,4.2,1.4c2.2,0,4.3-0.6,6.3-1.7c2-1.1,3.7-2.4,5.1-3.8
			c0.5-0.5,1-1,1.4-1.5c-0.2,0.9-0.3,1.9-0.3,2.9c0,1.4,0.3,2.4,0.9,3.1c0.6,0.7,1.5,1,2.5,1c0.7,0,1.4-0.2,2.2-0.5
			c0.8-0.3,1.6-0.8,2.3-1.3c0.7-0.6,1.2-1.2,1.5-1.8l0.5-0.1V33c0,1.1,0.3,2,1,2.6c0.7,0.6,1.5,1,2.5,1c0.9,0,1.7-0.3,2.7-0.9
			c0.9-0.6,1.9-1.4,2.8-2.4c1-1,1.9-2.1,2.9-3.4c0.1-0.1,0.2-0.3,0.3-0.4l-3.5,6.5h4.8c1.2-2.1,2.7-4.2,4.5-6.3
			c1.8-2.1,3.1-3.6,4-4.5c0.2,0.6,0.5,1.3,0.8,2c0.3,0.8,0.7,1.4,1.3,2c0.6,0.6,1.4,0.8,2.4,0.8c1.2,0,2.4-0.3,3.5-0.8
			c0.2-0.1,0.4-0.2,0.5-0.3c-0.3,0.9-0.5,1.8-0.5,2.8c0,1.4,0.5,2.5,1.4,3.4c0.9,0.9,2.2,1.3,3.8,1.3c1.9,0,3.8-0.5,5.6-1.4
			c1.9-0.9,3.6-2.1,5.1-3.6c0.2-0.2,0.4-0.3,0.5-0.5C86.8,30.7,86.7,30.4,86.6,30z M77.3,26.3c0.5-1,1.2-1.9,1.9-2.7
			c0.7-0.8,1.4-1.2,2-1.2c0.7,0,1,0.4,1,1.1c0,1.1-0.3,2.1-1,3c-0.6,0.9-1.4,1.5-2.3,1.9c-0.9,0.4-1.6,0.7-2.2,0.7
			c-0.3,0-0.4-0.2-0.4-0.6C76.5,28,76.8,27.3,77.3,26.3z M42.3,28c-0.8,1.6-1.7,3.1-2.7,4.4c-1,1.3-1.9,2-2.7,2
			c-1.2,0-1.8-0.8-1.8-2.4c0-1,0.4-2.3,1.3-3.9c0.8-1.6,1.8-2.9,2.9-4.1c1.1-1.2,2-1.8,2.6-1.8c0.5,0,0.9,0.2,1.2,0.6
			c0.3,0.4,0.5,1,0.5,1.7C43.5,25.3,43.1,26.4,42.3,28z"/>
		<path d="M163.6,30.7c-1.1,1.2-2.4,2.3-3.7,3.3c-1.3,1-2.4,1.5-3.3,1.5v-0.1c-0.3,0-0.6-0.1-0.8-0.3c-0.2-0.2-0.3-0.5-0.3-0.7
			c0-0.8,0.3-1.7,0.8-2.7l4.5-8.2h5.2l0.1-0.7h-4.9l2.9-5.6h-5.5l-3,5.6h-3v0.7h2.9l-2.4,4.3c-0.8,1-1.6,2-2.3,3
			c-1.1,1.4-2.2,2.6-3.2,3.6c-1,1-1.8,1.5-2.4,1.5c-0.2,0-0.4-0.1-0.5-0.4c-0.2-0.3-0.2-0.5-0.2-0.8c0-0.4,0.1-0.8,0.3-1.2
			c0.2-0.4,0.4-0.8,0.6-1.1c0.2-0.3,0.5-0.7,0.9-1.1c0.4-0.4,0.7-0.8,1-1.1c0.6-0.7,1-1.3,1.2-1.9c0.2-0.6,0.4-1.3,0.4-2.2
			c0-1.1-0.2-2-0.6-2.7c-0.4-0.7-1.1-1-2-1c-1.7,0-3.3,0.6-4.6,1.7c-1.4,1.1-2.4,2.1-2.9,2.8h-0.2l2.3-4.1h-5.3l-2.1,3.9
			c-0.9,1.1-1.5,1.9-1.9,2.3c-0.4,0.6-1.1,1.4-2,2.4c-0.9,1-1.7,1.9-2.3,2.5c-0.7,0.6-1.2,1-1.5,1.1c-0.1,0-0.2,0.1-0.3,0.1
			c-0.2,0-0.3,0.1-0.5,0.1c-0.2,0-0.4-0.1-0.7-0.2c-0.2-0.1-0.4-0.2-0.4-0.4c0-0.6,0.1-1.1,0.3-1.5l5.9-11.1h-4.8l-0.8,1.5h-0.8
			v-0.1c0-0.7-0.3-1.2-0.8-1.4c-0.6-0.2-1.4-0.3-2.6-0.3c-1.1,0-2.3,0.2-3.5,0.6c-1.2,0.4-2.4,1.1-3.5,2c-0.6,0.5-1.2,1.1-1.7,1.9
			c0,0.2,0,0.4,0,0.6c0,0.1,0,0.3,0,0.4c-0.1,2.5-0.7,4.8-1.8,7c0.2,0.6,0.4,1.1,0.8,1.5c0.6,0.7,1.5,1,2.5,1c0.7,0,1.4-0.2,2.2-0.5
			c0.8-0.3,1.6-0.8,2.3-1.3c0.7-0.6,1.2-1.2,1.5-1.8l0.5-0.1V33c0,1.1,0.3,2,1,2.6c0.7,0.6,1.5,1,2.5,1c0.9,0,1.7-0.3,2.7-0.9
			c0.9-0.6,1.9-1.4,2.8-2.4c1-1,1.9-2.1,2.9-3.4c0.1-0.1,0.1-0.2,0.2-0.3l-3.7,6.8l4.8,0.1c0.3-0.5,0.8-1.4,1.5-2.5
			c0.7-1.2,1.7-2.6,3-4.3c1.3-1.7,2.5-3.2,3.8-4.4c0.5-0.5,1-0.9,1.4-1.1c0.4-0.2,0.9-0.3,1.5-0.3c0.2,0,0.4,0.1,0.6,0.3
			c0.2,0.2,0.3,0.5,0.3,0.7c0,0.3-0.2,0.6-0.5,1c-0.3,0.4-0.8,1-1.5,1.7c-0.7,0.7-1.1,1.2-1.2,1.3c-0.4,0.5-0.7,1.2-1,2.2
			c-0.3,1-0.4,1.9-0.4,2.6c0,2.1,1.1,3.1,3.3,3.1c1,0,1.9-0.3,2.9-0.9c0.9-0.6,1.8-1.3,2.7-2.3c0.6-0.6,1.2-1.4,1.9-2.3
			c-0.3,0.5-0.4,1-0.4,1.2c0,1,0.1,1.8,0.4,2.3c0.3,0.5,0.7,0.9,1.3,1.1c0.6,0.2,1.4,0.3,2.4,0.3c1.4,0,2.7-0.3,3.9-0.8
			c1.2-0.5,2.3-1.2,3.3-2.1c1-0.9,2-1.9,3-3.2c1.1-1.3,1.9-2.3,2.6-3.1v-1.1C166,28,164.7,29.4,163.6,30.7z M121.4,28
			c-0.8,1.6-1.7,3.1-2.7,4.4c-1,1.3-1.9,2-2.7,2c-1.2,0-1.8-0.8-1.8-2.4c0-1,0.4-2.3,1.3-3.9c0.8-1.6,1.8-2.9,2.9-4.1
			c1.1-1.2,2-1.8,2.6-1.8c0.5,0,0.9,0.2,1.2,0.6c0.3,0.4,0.5,1,0.5,1.7C122.6,25.3,122.2,26.4,121.4,28z"/>
	</g>
	<g>
		<path d="M43.1,43v-2H44v-0.6h-1v-0.2h1v-0.5h0.4v0.5h1v0.2h-1v0.6h0.8v1.5c0,0.4-0.2,0.6-0.7,0.6h-0.2v0.7h1.1v0.3h-1.1v1H44v-1
			h-1.1v-0.3H44V43H43.1z M43.4,41.2v0.6h1.4v-0.6H43.4z M44.8,42.4V42h-1.4v0.7h1C44.7,42.7,44.8,42.6,44.8,42.4z M45.3,41.5v-0.3
			c0.5-0.4,0.7-1,0.8-1.6h0.4c0,0.2-0.1,0.4-0.2,0.6h1.9v0.3h-2C46.1,40.9,45.8,41.2,45.3,41.5z M46.2,44.5h1.4
			c0.2,0,0.4-0.1,0.4-0.3v-0.3h0.3v0.4c0,0.3-0.2,0.5-0.6,0.5h-1.6c-0.5,0-0.6-0.3-0.4-0.7l1.6-2.4h-1.7v-0.3h2.1v0.3L46,44.3
			c0,0.1-0.1,0.1,0,0.2C46,44.5,46.1,44.5,46.2,44.5z"/>
		<path d="M63.8,42.2h-4.3v0.9v0.1h4.4v0.2h-3.4v1c0.2,0,0.6-0.1,1.1-0.3v0.2c-0.3,0.2-0.8,0.3-1.5,0.5v-1.5h-0.7
			c0,0.7-0.3,1.2-0.9,1.5v-0.3c0.4-0.3,0.6-0.8,0.5-1.5v-1.3h4.7V42.2z M59.1,39.8h4.5V40h-2.1v0.4h2.4v1h-0.3v-0.8h-2v1.1h-0.4
			v-1.1h-2v0.8h-0.4v-1h2.4V40h-2.1V39.8z M59.5,41h1.3v0.2h-1.3V41z M59.5,41.5h1.3v0.2h-1.3V41.5z M59.9,42.8v-0.2h3.7v0.2H59.9z
			 M64,44.7v0.2c-1.3-0.1-2.2-0.6-2.7-1.3h0.4c0.2,0.2,0.4,0.4,0.7,0.6c0.4-0.1,0.6-0.4,0.8-0.6h0.4c-0.2,0.4-0.5,0.6-0.9,0.7
			C63,44.5,63.5,44.6,64,44.7z M61.9,41h1.3v0.2h-1.3V41z M61.9,41.5h1.3v0.2h-1.3V41.5z"/>
		<path d="M77.4,40.1v-0.2h2.2v0.2c-0.2,0.5-0.5,0.8-0.9,1c0.3,0.2,0.6,0.3,1.1,0.4v0.2c-0.5-0.1-1-0.2-1.3-0.4
			c-0.2,0.1-0.5,0.2-0.8,0.3c0.6,0.4,1.3,0.8,2.3,1v0.2c-0.4-0.1-0.7-0.2-1.1-0.3v0.8c0,0.4-0.2,0.5-0.5,0.5h-2.6v0.8
			c0.5-0.1,0.9-0.2,1.3-0.3v0.2c-0.5,0.2-1,0.4-1.7,0.5v-2.5c-0.3,0.1-0.6,0.2-1,0.3v-0.2c1.1-0.3,2-0.7,2.6-1.3h0.3l0.1,0.1
			c0.3-0.1,0.5-0.2,0.7-0.3c-0.2-0.2-0.5-0.4-0.7-0.8h0.4c0.2,0.2,0.4,0.5,0.6,0.6c0.3-0.2,0.6-0.4,0.8-0.8H77.4z M74.8,41.1v-0.2
			c-0.1,0.1-0.2,0.1-0.4,0.2v-0.2c0.4-0.2,0.7-0.5,0.7-0.8h0.3c0,0.1,0,0.2-0.1,0.3h0.5v-0.8h0.3v0.3h0.9V40h-0.9v0.3H77v0.2
			c-0.5,0.7-1.3,1.1-2.6,1.4v-0.2c0.5-0.2,0.9-0.3,1.1-0.4C75.3,41.2,75.1,41.1,74.8,41.1z M75.2,40.6c0,0.1-0.1,0.2-0.3,0.3
			c0,0,0,0,0,0c0.3,0,0.6,0.1,0.8,0.2v0.2c0.3-0.2,0.6-0.4,0.8-0.7H75.2z M77.2,42v0.4h1.4c-0.6-0.2-1.1-0.5-1.6-0.9
			c-0.4,0.4-0.9,0.7-1.6,0.9h1.4V42H77.2z M75.7,42.6V43h2.8v-0.4H75.7z M78.1,43.6c0.2,0,0.3-0.1,0.3-0.3v-0.1h-2.8v0.4H78.1z
			 M79.5,44.7v0.2c-1.2-0.1-2.1-0.4-2.6-1h0.4c0.2,0.2,0.4,0.3,0.6,0.4c0.3-0.1,0.6-0.2,0.7-0.4h0.4c-0.2,0.3-0.5,0.4-0.8,0.5
			C78.6,44.6,79,44.7,79.5,44.7z"/>
		<path d="M92,40.2v1h-0.3v-0.8h-0.8c-0.1,0.4-0.4,0.8-0.8,1.1v-0.2c0.4-0.5,0.6-1,0.7-1.7h0.4c0,0.2-0.1,0.4-0.1,0.6H92z
			 M91.2,44.1c0.3-0.1,0.6-0.2,0.9-0.4v0.3c-0.2,0.2-0.7,0.4-1.2,0.7v-3.3h0.4V44.1z M93.9,42.9C93.6,43.7,93,44.4,92,45v-0.3
			c1.1-0.8,1.7-1.9,1.6-3.3v-0.5H94v0.5c-0.1,1.4,0.5,2.5,1.5,3.3V45C94.7,44.4,94.1,43.7,93.9,42.9z M92.2,41.5
			c0.5-0.5,0.8-1.1,0.9-1.9h0.4c0,0.1,0,0.1,0,0.3c0,0.2-0.1,0.3-0.1,0.3h1.9v1.4h-0.3v-1.1h-1.6c-0.2,0.5-0.5,1-1.1,1.3V41.5z"/>
		<path d="M105.9,40.9v-0.2c0.5-0.2,0.8-0.6,0.9-1.1h0.3c0,0.1-0.1,0.3-0.1,0.4h1.6v0.2h-1c0.1,0.1,0.1,0.3,0.2,0.5c0,0,0,0.1,0,0.1
			h-0.4c0-0.2-0.1-0.4-0.2-0.6h-0.4C106.7,40.5,106.4,40.7,105.9,40.9z M111.1,41.1v0.8h-0.4v-0.6h-4.3v0.6h-0.4v-0.8h2.3v-0.4h0.2
			v-0.1c0.5-0.2,0.7-0.5,0.8-1h0.3c0,0.1-0.1,0.3-0.1,0.4h1.7v0.2h-1c0.1,0.2,0.2,0.4,0.2,0.6h-0.4c0-0.2-0.1-0.4-0.2-0.6h-0.5
			c-0.1,0.2-0.4,0.4-0.7,0.6v0.4H111.1z M109.8,43.1h-2.7v0.6h3.4v0.6c0,0.4-0.2,0.6-0.6,0.6h-3.2V42h3.7v0.5
			C110.4,42.9,110.2,43.1,109.8,43.1z M110,42.2h-2.9v0.7h2.6c0.2,0,0.3-0.1,0.3-0.3V42.2z M110.2,43.9h-3.1v0.7h2.7
			c0.3,0,0.4-0.1,0.4-0.4V43.9z"/>
		<path d="M121.7,41.8h0.7v-1.5h-0.7V40h1.8v0.3h-0.7v1.5h0.7V42h-0.7v1.9c0.2-0.1,0.5-0.2,0.7-0.3v0.2c-0.6,0.3-1.2,0.5-1.9,0.5
			v-0.3c0.2,0,0.5-0.1,0.8-0.1v-2h-0.7V41.8z M123.8,42.5v-2.6h3v1.9c0,0.5-0.2,0.7-0.6,0.7h-0.7v0.8h1.4v0.2h-1.4v1h1.7v0.3h-3.8
			v-0.3h1.8v-1h-1.4v-0.2h1.4v-0.8H123.8z M124.1,40.1V41h1v-0.9H124.1z M124.1,41.3v1h1v-1H124.1z M126.4,40.1h-1V41h1V40.1z
			 M126.4,41.8v-0.6h-1v1h0.6C126.3,42.2,126.4,42.1,126.4,41.8z"/>
	</g>
</g>
</svg>
