<?xml version="1.0" encoding="utf-8"?>
<!-- Generator: Adobe Illustrator 21.0.0, SVG Export Plug-In . SVG Version: 6.00 Build 0)  -->
<svg version="1.1" id="图层_1" xmlns="http://www.w3.org/2000/svg" xmlns:xlink="http://www.w3.org/1999/xlink" x="0px" y="0px"
	 viewBox="0 0 1080 1080" style="enable-background:new 0 0 1080 1080;" xml:space="preserve">
<style type="text/css">
	.st0{fill:url(#SVGID_1_);}
	.st1{fill:#F7B515;}
</style>
<g>
	<rect x="603.8" y="589.9" width="336.2" height="33.2"/>
	<path d="M714.6,475.2H603.8v-33.2h110.8V475.2z M890.7,442.1H780v33.2h110.8V442.1z M780,524.5h110.8v-33.2H780V524.5z
		 M603.8,524.5h110.8v-33.2H603.8V524.5z"/>
	<path d="M940,376.7v-33.2H610.9l-20.1,33.2h139.9v16.1H579.1L559,426h171.7v98.6h33.2V426h126.9c3.3,0,6.4,1,9,2.7
		c3.4,2.3,5.9,5.9,6.8,10.1c0.2,1,0.3,2.1,0.3,3.2v82.5H940v-82.5c0-27.2-22.1-49.3-49.3-49.3H763.9v-16.1H940z"/>
	<path d="M590.5,580.9c2.3-3.4,5.9-5.9,10.1-6.8c1-0.2,2.1-0.3,3.2-0.3H940v-33.2H603.8c-27.2,0-49.3,22.1-49.3,49.3v82.5
		c0,3.3-1,6.4-2.7,9c-2.3,3.4-5.9,5.9-10.1,6.8c-1,0.2-2.1,0.3-3.2,0.3h-76.4L442,721.6h96.5c27.2,0,49.3-22.1,49.3-49.3H636v49.5
		c0,27.2,22.1,49.3,49.3,49.3h82.5v-33.2h-82.5c-3.3,0-6.4-1-9-2.7c-3.4-2.3-5.9-5.9-6.8-10.1c-0.2-1-0.3-2.1-0.3-3.2v-49.5h108.2
		L940,771.1v-38.8l-19.5-11.8l19.5-32h-38.8l-9,14.8l-50.9-30.9H940v-33.2H587.7v-49.3C587.7,586.6,588.8,583.5,590.5,580.9z"/>
	<polygon points="445,426 540,426 560.2,392.8 502,392.8 553,308.9 514.2,308.9 443.1,426 	"/>
	<path d="M455.5,442.1c5.9,10.3,10.6,21.4,13.6,33.2h65.7L385.1,721.6h38.8l169.9-279.6H455.5z"/>
	<radialGradient id="SVGID_1_" cx="298.5009" cy="468.4315" r="161.4786" gradientUnits="userSpaceOnUse">
		<stop  offset="0" style="stop-color:#DC5410"/>
		<stop  offset="1" style="stop-color:#9E1F24"/>
	</radialGradient>
	<path class="st0" d="M330.5,392.4c3.5-0.3,7-0.5,10.6-0.5c64.2,0,116.2,52,116.2,116.2c0,31.4-12.5,59.9-32.8,80.8
		c-18.7-6.2-36.2-16-52.2-29.5c-7.4-6.3-13.6-12.6-18.6-18.3c7.6-3.5,14.6-7.2,21.2-11c30.8-18.2,48.8-39.8,50.6-60.9
		c1.7-19.8-11-36.2-34.2-43.8c-25.2-8.3-58.6-3.7-90.3,5.1c-0.9-3.4-1.5-5.4-1.6-5.6c-1.9-5.5-7.9-8.5-13.4-6.7
		c-5.6,1.8-8.6,7.8-6.7,13.4c0,0.1,0.6,1.9,1.4,5.2c-15.4,5.2-29.9,11-42,16.3c0-0.1,0.1-0.1,0.1-0.2c0.2-0.4,0.4-0.7,0.6-1.1
		c1.4-2.6,3-5.1,4.6-7.5c0.5-0.8,1-1.6,1.6-2.3c1.7-2.5,3.5-4.9,5.4-7.2c0.2-0.3,0.4-0.5,0.6-0.8c2.1-2.5,4.3-4.9,6.6-7.2
		c0.6-0.7,1.3-1.3,2-1.9c2-1.9,4-3.7,6-5.5c0.5-0.4,0.9-0.8,1.4-1.2c2.5-2.1,5.1-4,7.8-5.8c0.7-0.5,1.4-0.9,2.1-1.4
		c2.2-1.5,4.5-2.9,6.9-4.2c0.7-0.4,1.4-0.8,2-1.2c2.9-1.5,5.9-3,8.9-4.3c0.7-0.3,1.3-0.5,2-0.8c2.5-1,5.1-2,7.8-2.8
		c0.8-0.3,1.7-0.6,2.5-0.8c3.2-1,6.5-1.8,9.8-2.5c0.5-0.1,0.9-0.2,1.4-0.2c2.9-0.6,5.9-1,9-1.4C328.6,392.5,329.6,392.4,330.5,392.4
		z M362.5,569.9c-9.4-8-17-16.1-22.7-22.9c-14,5.6-29.4,10.6-46,15c-4.2,13.6-9.7,28-16.9,42.9c2.6,1.7,5.3,3.4,8,4.9
		c0.9,0.5,1.8,0.9,2.6,1.4c2.2,1.1,4.4,2.2,6.6,3.2c1,0.4,2,0.9,3,1.3c2.7,1.1,5.5,2.1,8.3,3c0.4,0.1,0.9,0.3,1.3,0.5
		c3.2,1,6.5,1.8,9.9,2.5c1,0.2,2,0.4,2.9,0.6c2.6,0.5,5.1,0.9,7.7,1.2c1,0.1,2.1,0.3,3.1,0.3c3.5,0.3,7.1,0.5,10.7,0.5
		c26.8,0,51.5-9.2,71.1-24.5C391.2,591.6,374.6,580.3,362.5,569.9z M330.6,535.1c-2.9-4.2-4.4-6.8-4.6-7.1c-2-3.5-0.7-7.9,2.7-9.9
		c3.5-2,7.9-0.7,9.9,2.7c0.1,0.2,2,3.5,5.8,8.6c8.4-3.7,16.1-7.7,23.2-11.8c26.3-15.5,42.1-33.6,43.5-49.7
		c1.1-12.9-7.7-23.4-24.3-28.8c-22.4-7.4-53.2-2.9-82.9,5.6c1.5,9.7,2.8,22.5,2.7,38c-0.2,16.7-2.1,38.3-8.3,63.1
		C309.8,542.5,320.6,538.9,330.6,535.1z M259.8,591.1c3.7-8,6.8-15.8,9.6-23.3c-8.1,1.7-16.4,3.3-25,4.8c0,0.1,0.1,0.1,0.1,0.2
		c2.2,3.3,4.5,6.4,7,9.4c0.3,0.4,0.7,0.8,1,1.2c2.2,2.6,4.5,5.1,6.8,7.4C259.6,590.9,259.7,591,259.8,591.1z M226.2,524.8
		c0.4,2.8,0.9,5.7,1.5,8.4c0.3,1.5,0.8,3,1.2,4.5c0.7,2.5,1.4,5,2.2,7.5c0.5,1.5,1.1,3,1.6,4.4c0.9,2.4,1.9,4.7,3,7
		c0.4,0.8,0.8,1.6,1.2,2.4c13.2-2.1,25.8-4.6,37.8-7.3c8-27.2,10.4-50.7,10.7-68.3c0.2-12.9-0.8-23.9-2-32.4
		c-20.7,7.1-39.6,15.4-53,21.7c0,0.1-0.1,0.2-0.1,0.3c-0.2,0.7-0.4,1.4-0.6,2.1c-0.8,2.6-1.5,5.3-2.1,8c-0.2,1.1-0.5,2.3-0.7,3.4
		c-0.5,2.4-0.8,4.9-1.1,7.4c-0.1,1.1-0.3,2.2-0.4,3.3c-0.3,3.5-0.5,7.1-0.5,10.7c0,4.3,0.3,8.6,0.7,12.8
		C225.7,522.2,226,523.5,226.2,524.8z"/>
	<path d="M449.6,384.5c-25.1-22.1-56.9-36.6-92-40.2v-0.8v-34.6h-33.2v34.6v0.9c-50.1,5-93.7,32.6-120.3,72.5l27.7,16.8
		c20.9-30.6,54.2-52,92.6-56.8v0c5.4-0.7,11-1.1,16.6-1.1c2.7,0,5.4,0.1,8.1,0.3c0.3,0,0.5,0,0.8,0.1c2.6,0.2,5.2,0.4,7.7,0.7l0,0
		c28.9,3.6,54.8,16.6,74.8,35.8L449.6,384.5z"/>
	<path class="st1" d="M208.9,508c0-22.6,5.7-43.9,15.7-62.5L197,428.7c-13,23.5-20.4,50.6-20.4,79.3c0,57,29.1,107.2,73.2,136.8
		l16.8-27.7C231.8,593.3,208.9,553.3,208.9,508z"/>
	<path d="M445.1,589.5c-21,26.8-52.1,45.3-87.4,49.7v0c-5.4,0.7-11,1.1-16.6,1.1c-5.6,0-11.1-0.4-16.6-1.1v0v0
		c-16.5-2.1-32.1-7.2-46.1-14.8L261.6,652c19,10.5,40.3,17.3,62.9,19.6v0.7v98.8h33.2v-88.2v-10.5v-0.6c15.4-1.6,30.1-5.2,44-10.7
		L445.1,589.5z"/>
	<path d="M165.8,409.8C149.4,438.8,140,472.4,140,508c0,70.2,36.1,132,90.8,168l10.6-17.4c-48.8-32.4-81-87.8-81-150.6
		c0-31.8,8.3-61.7,22.8-87.7L165.8,409.8z"/>
</g>
</svg>
